<svg xmlns="http://www.w3.org/2000/svg" style="display:none">
  <symbol id="ic-mail" viewBox="0 0 24 24">
    <path fill="currentColor" d="M20 4H4a2 2 0 0 0-2 2v12a2 2 0 0 0 2 2h16a2 2 0 0 0 2-2V6a2 2 0 0 0-2-2m0 4-8 5L4 8V6l8 5 8-5z"/>
  </symbol>
  <symbol id="ic-wa" viewBox="0 0 24 24">
    <path fill="currentColor" d="M16.2 13.5c-.2-.1-1.3-.6-1.5-.6c-.2 0-.3-.1-.4.1s-.5.6-.6.7c-.1.1-.2.1-.4 0c-.2-.1-.9-.3-1.7-1c-.6-.6-1-1.2-1.1-1.4c-.1-.2 0-.3.1-.4c.1-.1.2-.2.3-.3c.1-.1.1-.2.2-.3c.1-.1.1-.2 0-.3c0-.1-.4-1.1-.6-1.5c-.2-.4-.3-.3-.4-.3h-.3c-.1 0-.3 0-.4.2c-.1.2-.5.5-.5 1.3c0 .8.6 1.6.7 1.7c.1.1 1.2 1.8 2.9 2.5c1.7.7 1.7.5 2 .5c.3 0 1-.4 1.1-.8c.1-.4.1-.7.1-.8c0-.1-.1-.1-.3-.2M12.1 3a9 9 0 0 0-4.8 1.4A9.1 9.1 0 0 0 3 12.2A9.2 9.2 0 0 0 4.3 17L3 21l4-1a9.2 9.2 0 0 0 5.1 1.5a9.1 9.1 0 0 0 6.3-2.6c1.7-1.7 2.7-3.9 2.7-6.3a9.1 9.1 0 0 0-2.7-6.5A9.1 9.1 0 0 0 12.1 3Z"/>
  </symbol>
  <symbol id="ic-phone" viewBox="0 0 24 24">
    <path fill="currentColor" d="M20 15.5c-1.25 0-2.45-.2-3.57-.57a1 1 0 0 0-1.02.24l-1.91 1.91a16.91 16.91 0 0 1-7.6-7.6l1.91-1.91a1 1 0 0 0 .24-1.02A11.84 11.84 0 0 1 8.5 4c0-.55-.45-1-1-1H4c-.55 0-1 .45-1 1C3 14.05 9.95 21 19 21c.55 0 1-.45 1-1v-3.5c0-.55-.45-1-1-1"/>
  </symbol>
  <symbol id="ic-external" viewBox="0 0 24 24">
    <path fill="currentColor" d="M14 3h7v7h-2V6.4l-7.8 7.8l-1.4-1.4L17.6 5H14V3M19 19H5V5h7V3H5a2 2 0 0 0-2 2v14a2 2 0 0 0 2 2h14a2 2 0 0 0 2-2v-7h-2v7Z"/>
  </symbol>
  <symbol id="ic-bbq" viewBox="0 0 24 24">
    <path fill="currentColor" d="M12 2a6 6 0 0 0-6 6c0 2.22 1.21 4.16 3 5.19V16h-1v2h2v3h2v-3h2v-2h-1v-2.81c1.79-1.03 3-2.97 3-5.19a6 6 0 0 0-6-6m0 2a4 4 0 0 1 4 4c0 1.36-.74 2.54-1.84 3.2L14 13h-4l-.16-1.8A3.999 3.999 0 0 1 8 8a4 4 0 0 1 4-4m-8 9v2h2v-2H4m14 0v2h2v-2h-2Z"/>
  </symbol>
</svg>
